<svg width="200" height="200" viewBox="0 0 200 200" fill="none" xmlns="http://www.w3.org/2000/svg">
<g clip-path="url(#clip0)">
<rect width="200" height="200" fill="#0A2351"/>
<g style="mix-blend-mode:hard-light">
<circle cx="6.10352e-05" cy="165.352" r="24.3521" stroke="#E7C2FA" stroke-width="2"/>
<path fill-rule="evenodd" clip-rule="evenodd" d="M18.7298 148.266C14.1561 152.529 11.2959 158.607 11.2959 165.352C11.2959 172.098 14.1561 178.175 18.7298 182.438C18.28 182.931 17.811 183.406 17.3241 183.862C12.3833 179.236 9.2959 172.655 9.2959 165.352C9.2959 158.05 12.3833 151.468 17.3241 146.842C17.811 147.298 18.28 147.773 18.7298 148.266Z" fill="#E7C2FA"/>
<path fill-rule="evenodd" clip-rule="evenodd" d="M17.0862 146.622C12.8233 151.196 6.74569 154.056 9.34601e-05 154.056C-6.7455 154.056 -12.8231 151.196 -17.0861 146.622C-17.5788 147.072 -18.0538 147.541 -18.5098 148.028C-13.8837 152.969 -7.30235 156.056 9.34601e-05 156.056C7.30254 156.056 13.8839 152.969 18.51 148.028C18.054 147.541 17.579 147.072 17.0862 146.622Z" fill="#E7C2FA"/>
<circle cx="34.6479" cy="200" r="24.3521" transform="rotate(90 34.6479 200)" stroke="#DCF8E3" stroke-width="2"/>
<path fill-rule="evenodd" clip-rule="evenodd" d="M17.5617 181.27C21.8247 185.844 27.9023 188.704 34.6479 188.704C41.3935 188.704 47.471 185.844 51.734 181.27C52.2268 181.72 52.7017 182.189 53.1577 182.676C48.5316 187.617 41.9503 190.704 34.6479 190.704C27.3454 190.704 20.7641 187.617 16.138 182.676C16.594 182.189 17.0689 181.72 17.5617 181.27Z" fill="#DCF8E3"/>
<path fill-rule="evenodd" clip-rule="evenodd" d="M53.3774 217.086C48.8037 212.823 45.9435 206.746 45.9435 200C45.9435 193.254 48.8037 187.177 53.3774 182.914C52.9277 182.421 52.4587 181.946 51.9717 181.49C47.031 186.116 43.9435 192.698 43.9435 200C43.9435 207.302 47.031 213.884 51.9717 218.51C52.4587 218.054 52.9277 217.579 53.3774 217.086Z" fill="#DCF8E3"/>
<circle cx="6.10352e-05" cy="200" r="24.3521" stroke="#E7C2FA" stroke-width="2"/>
</g>
<g style="mix-blend-mode:hard-light">
<circle cx="-6.10352e-05" cy="34.6479" r="24.3521" transform="rotate(-180 -6.10352e-05 34.6479)" stroke="#ACFBF9" stroke-width="2"/>
<path fill-rule="evenodd" clip-rule="evenodd" d="M18.7295 17.5617C14.1557 21.8247 11.2956 27.9023 11.2956 34.6479C11.2956 41.3935 14.1557 47.4711 18.7295 51.734C18.2797 52.2268 17.8107 52.7018 17.3237 53.1577C12.383 48.5317 9.29557 41.9503 9.29557 34.6479C9.29557 27.3454 12.383 20.7641 17.3237 16.138C17.8107 16.594 18.2797 17.069 18.7295 17.5617Z" fill="#ACFBF9"/>
<path fill-rule="evenodd" clip-rule="evenodd" d="M-17.0862 53.3776C-12.8233 48.8038 -6.74569 45.9437 -9.34601e-05 45.9437C6.7455 45.9437 12.8231 48.8038 17.0861 53.3776C17.5788 52.9278 18.0538 52.4588 18.5098 51.9718C13.8837 47.0311 7.30235 43.9437 -9.34601e-05 43.9437C-7.30254 43.9437 -13.8839 47.0311 -18.51 51.9718C-18.054 52.4588 -17.579 52.9278 -17.0862 53.3776Z" fill="#ACFBF9"/>
<circle cx="34.6479" r="24.3521" transform="rotate(90 34.6479 0)" stroke="#DCF8E3" stroke-width="2"/>
<path fill-rule="evenodd" clip-rule="evenodd" d="M51.734 18.7297C47.471 14.1559 41.3935 11.2958 34.6479 11.2958C27.9023 11.2958 21.8247 14.1559 17.5617 18.7297C17.0689 18.2799 16.594 17.8109 16.138 17.3239C20.7641 12.3832 27.3454 9.29578 34.6479 9.29578C41.9503 9.29578 48.5316 12.3832 53.1577 17.3239C52.7017 17.8109 52.2268 18.2799 51.734 18.7297Z" fill="#DCF8E3"/>
<path fill-rule="evenodd" clip-rule="evenodd" d="M53.3774 17.0862C48.8037 12.8232 45.9435 6.7456 45.9435 1.90735e-06C45.9435 -6.74559 48.8037 -12.8232 53.3774 -17.0861C52.9277 -17.5789 52.4587 -18.0539 51.9717 -18.5099C47.031 -13.8838 43.9435 -7.30244 43.9435 1.90735e-06C43.9435 7.30245 47.031 13.8838 51.9717 18.5099C52.4587 18.0539 52.9277 17.5789 53.3774 17.0862Z" fill="#DCF8E3"/>
<circle cx="6.10352e-05" r="24.3521" stroke="#E7C2FA" stroke-width="2"/>
</g>
<g style="mix-blend-mode:hard-light">
<circle cx="200" cy="34.6479" r="24.3521" transform="rotate(-180 200 34.6479)" stroke="#ACFBF9" stroke-width="2"/>
<path fill-rule="evenodd" clip-rule="evenodd" d="M181.27 51.734C185.844 47.4711 188.704 41.3935 188.704 34.6479C188.704 27.9023 185.844 21.8247 181.27 17.5617C181.72 17.069 182.189 16.594 182.676 16.138C187.617 20.7641 190.704 27.3454 190.704 34.6479C190.704 41.9503 187.617 48.5317 182.676 53.1577C182.189 52.7018 181.72 52.2268 181.27 51.734Z" fill="#ACFBF9"/>
<path fill-rule="evenodd" clip-rule="evenodd" d="M182.914 53.3776C187.177 48.8038 193.254 45.9437 200 45.9437C206.746 45.9437 212.823 48.8038 217.086 53.3776C217.579 52.9278 218.054 52.4588 218.51 51.9718C213.884 47.0311 207.302 43.9437 200 43.9437C192.697 43.9437 186.116 47.0311 181.49 51.9718C181.946 52.4588 182.421 52.9278 182.914 53.3776Z" fill="#ACFBF9"/>
<circle cx="165.352" r="24.3521" transform="rotate(-90 165.352 0)" stroke="#E1C9D7" stroke-width="2"/>
<path fill-rule="evenodd" clip-rule="evenodd" d="M182.438 18.7297C178.175 14.156 172.098 11.2958 165.352 11.2958C158.607 11.2958 152.529 14.156 148.266 18.7297C147.773 18.2799 147.298 17.811 146.842 17.324C151.468 12.3833 158.05 9.29582 165.352 9.29582C172.655 9.29582 179.236 12.3833 183.862 17.324C183.406 17.811 182.931 18.2799 182.438 18.7297Z" fill="#E1C9D7"/>
<path fill-rule="evenodd" clip-rule="evenodd" d="M146.623 -17.0862C151.196 -12.8232 154.056 -6.7456 154.056 -1.90735e-06C154.056 6.74559 151.196 12.8232 146.623 17.0861C147.072 17.5789 147.541 18.0539 148.028 18.5099C152.969 13.8838 156.056 7.30244 156.056 -1.90735e-06C156.056 -7.30245 152.969 -13.8838 148.028 -18.5099C147.541 -18.0539 147.072 -17.5789 146.623 -17.0862Z" fill="#E1C9D7"/>
<circle cx="200" r="24.3521" stroke="#E7C2FA" stroke-width="2"/>
</g>
<g style="mix-blend-mode:hard-light">
<circle cx="200" cy="165.352" r="24.3521" stroke="#E7C2FA" stroke-width="2"/>
<path fill-rule="evenodd" clip-rule="evenodd" d="M181.271 182.438C185.844 178.175 188.704 172.098 188.704 165.352C188.704 158.607 185.844 152.529 181.271 148.266C181.72 147.773 182.189 147.298 182.676 146.842C187.617 151.468 190.704 158.05 190.704 165.352C190.704 172.655 187.617 179.236 182.676 183.862C182.189 183.406 181.72 182.931 181.271 182.438Z" fill="#E7C2FA"/>
<path fill-rule="evenodd" clip-rule="evenodd" d="M217.086 146.622C212.823 151.196 206.746 154.056 200 154.056C193.254 154.056 187.177 151.196 182.914 146.622C182.421 147.072 181.946 147.541 181.49 148.028C186.116 152.969 192.698 156.056 200 156.056C207.303 156.056 213.884 152.969 218.51 148.028C218.054 147.541 217.579 147.072 217.086 146.622Z" fill="#E7C2FA"/>
<circle cx="165.352" cy="200" r="24.3521" transform="rotate(-90 165.352 200)" stroke="#E1C9D7" stroke-width="2"/>
<path fill-rule="evenodd" clip-rule="evenodd" d="M148.266 181.27C152.529 185.844 158.607 188.704 165.352 188.704C172.098 188.704 178.175 185.844 182.438 181.27C182.931 181.72 183.406 182.189 183.862 182.676C179.236 187.617 172.655 190.704 165.352 190.704C158.05 190.704 151.468 187.617 146.842 182.676C147.298 182.189 147.773 181.72 148.266 181.27Z" fill="#E1C9D7"/>
<path fill-rule="evenodd" clip-rule="evenodd" d="M146.623 182.914C151.196 187.177 154.056 193.254 154.056 200C154.056 206.746 151.196 212.823 146.623 217.086C147.072 217.579 147.541 218.054 148.028 218.51C152.969 213.884 156.056 207.302 156.056 200C156.056 192.698 152.969 186.116 148.028 181.49C147.541 181.946 147.072 182.421 146.623 182.914Z" fill="#E1C9D7"/>
<circle cx="200" cy="200" r="24.3521" stroke="#E7C2FA" stroke-width="2"/>
</g>
<g style="mix-blend-mode:hard-light">
<circle cx="99.9999" cy="134.648" r="24.3521" transform="rotate(-180 99.9999 134.648)" stroke="#E7C2FA" stroke-width="2"/>
<path fill-rule="evenodd" clip-rule="evenodd" d="M81.2702 151.734C85.8439 147.471 88.7041 141.393 88.7041 134.648C88.7041 127.902 85.8439 121.825 81.2702 117.562C81.72 117.069 82.189 116.594 82.6759 116.138C87.6167 120.764 90.7041 127.345 90.7041 134.648C90.7041 141.95 87.6167 148.532 82.6759 153.158C82.189 152.702 81.72 152.227 81.2702 151.734Z" fill="#E7C2FA"/>
<path fill-rule="evenodd" clip-rule="evenodd" d="M118.729 117.562C114.156 121.825 111.296 127.902 111.296 134.648C111.296 141.394 114.156 147.471 118.729 151.734C118.28 152.227 117.811 152.702 117.324 153.158C112.383 148.532 109.296 141.95 109.296 134.648C109.296 127.345 112.383 120.764 117.324 116.138C117.811 116.594 118.28 117.069 118.729 117.562Z" fill="#E7C2FA"/>
<path fill-rule="evenodd" clip-rule="evenodd" d="M82.9138 153.378C87.1767 148.804 93.2543 145.944 99.9999 145.944C106.746 145.944 112.823 148.804 117.086 153.378C117.579 152.928 118.054 152.459 118.51 151.972C113.884 147.031 107.302 143.944 99.9999 143.944C92.6975 143.944 86.1161 147.031 81.49 151.972C81.946 152.459 82.421 152.928 82.9138 153.378Z" fill="#E7C2FA"/>
<circle cx="100" cy="65.3521" r="24.3521" stroke="#ACFBF9" stroke-width="2"/>
<path fill-rule="evenodd" clip-rule="evenodd" d="M118.73 48.266C114.156 52.5289 111.296 58.6065 111.296 65.3521C111.296 72.0977 114.156 78.1753 118.73 82.4383C118.28 82.931 117.811 83.406 117.324 83.862C112.383 79.2359 109.296 72.6546 109.296 65.3521C109.296 58.0497 112.383 51.4683 117.324 46.8423C117.811 47.2982 118.28 47.7732 118.73 48.266Z" fill="#ACFBF9"/>
<path fill-rule="evenodd" clip-rule="evenodd" d="M81.2705 82.4382C85.8443 78.1753 88.7044 72.0977 88.7044 65.3521C88.7044 58.6065 85.8443 52.5289 81.2705 48.2659C81.7203 47.7732 82.1893 47.2982 82.6763 46.8422C87.617 51.4683 90.7044 58.0496 90.7044 65.3521C90.7044 72.6545 87.617 79.2359 82.6763 83.8619C82.1893 83.406 81.7203 82.931 81.2705 82.4382Z" fill="#ACFBF9"/>
<path fill-rule="evenodd" clip-rule="evenodd" d="M117.086 46.6224C112.823 51.1962 106.746 54.0564 100 54.0564C93.2545 54.0564 87.1769 51.1962 82.9139 46.6224C82.4212 47.0722 81.9462 47.5412 81.4902 48.0282C86.1163 52.9689 92.6976 56.0564 100 56.0564C107.303 56.0564 113.884 52.9689 118.51 48.0282C118.054 47.5412 117.579 47.0722 117.086 46.6224Z" fill="#ACFBF9"/>
<circle cx="134.648" cy="100" r="24.3521" transform="rotate(90 134.648 100)" stroke="#E1C9D7" stroke-width="2"/>
<path fill-rule="evenodd" clip-rule="evenodd" d="M151.734 118.73C147.471 114.156 141.393 111.296 134.648 111.296C127.902 111.296 121.825 114.156 117.562 118.73C117.069 118.28 116.594 117.811 116.138 117.324C120.764 112.383 127.345 109.296 134.648 109.296C141.95 109.296 148.532 112.383 153.158 117.324C152.702 117.811 152.227 118.28 151.734 118.73Z" fill="#E1C9D7"/>
<path fill-rule="evenodd" clip-rule="evenodd" d="M117.562 81.2702C121.825 85.844 127.902 88.7041 134.648 88.7041C141.393 88.7041 147.471 85.844 151.734 81.2702C152.227 81.72 152.702 82.189 153.158 82.676C148.532 87.6167 141.95 90.7041 134.648 90.7041C127.345 90.7041 120.764 87.6167 116.138 82.676C116.594 82.189 117.069 81.72 117.562 81.2702Z" fill="#E1C9D7"/>
<path fill-rule="evenodd" clip-rule="evenodd" d="M153.377 117.086C148.804 112.823 145.944 106.746 145.944 100C145.944 93.2544 148.804 87.1768 153.377 82.9138C152.928 82.421 152.459 81.9461 151.972 81.4901C147.031 86.1162 143.944 92.6975 143.944 100C143.944 107.302 147.031 113.884 151.972 118.51C152.459 118.054 152.928 117.579 153.377 117.086Z" fill="#E1C9D7"/>
<circle cx="65.3521" cy="100" r="24.3521" transform="rotate(-90 65.3521 100)" stroke="#DCF8E3" stroke-width="2"/>
<path fill-rule="evenodd" clip-rule="evenodd" d="M48.266 81.2704C52.529 85.8441 58.6065 88.7043 65.3521 88.7043C72.0977 88.7043 78.1753 85.8441 82.4383 81.2704C82.9311 81.7202 83.406 82.1891 83.862 82.6761C79.2359 87.6168 72.6546 90.7043 65.3521 90.7043C58.0497 90.7043 51.4684 87.6168 46.8423 82.6761C47.2983 82.1891 47.7732 81.7202 48.266 81.2704Z" fill="#DCF8E3"/>
<path fill-rule="evenodd" clip-rule="evenodd" d="M82.4383 118.73C78.1753 114.156 72.0977 111.296 65.3521 111.296C58.6065 111.296 52.529 114.156 48.266 118.73C47.7732 118.28 47.2983 117.811 46.8423 117.324C51.4684 112.383 58.0497 109.296 65.3521 109.296C72.6546 109.296 79.2359 112.383 83.862 117.324C83.406 117.811 82.9311 118.28 82.4383 118.73Z" fill="#DCF8E3"/>
<path fill-rule="evenodd" clip-rule="evenodd" d="M46.6226 82.9139C51.1963 87.1769 54.0565 93.2544 54.0565 100C54.0565 106.746 51.1963 112.823 46.6226 117.086C47.0723 117.579 47.5413 118.054 48.0283 118.51C52.969 113.884 56.0565 107.302 56.0565 100C56.0565 92.6976 52.969 86.1162 48.0283 81.4902C47.5413 81.9461 47.0723 82.4211 46.6226 82.9139Z" fill="#DCF8E3"/>
<circle cx="99.9999" cy="100" r="24.3521" transform="rotate(-180 99.9999 100)" stroke="#E7C2FA" stroke-width="2"/>
</g>
</g>
<defs>
<clipPath id="clip0">
<rect width="200" height="200" fill="white"/>
</clipPath>
</defs>
</svg>
